<mxfile host="app.diagrams.net" modified="2023-06-19T14:11:44.798Z" agent="Mozilla/5.0 (Windows NT 10.0; Win64; x64) AppleWebKit/537.36 (KHTML, like Gecko) Chrome/114.0.0.0 Safari/537.36" etag="5JAJlnsxxrF_GSBqs_eV" version="21.5.0" type="device">
  <diagram name="Page-1" id="cvxpRtqzHrmowPEIcIa5">
    <mxGraphModel dx="794" dy="1107" grid="1" gridSize="10" guides="1" tooltips="1" connect="1" arrows="1" fold="1" page="1" pageScale="1" pageWidth="850" pageHeight="1100" math="0" shadow="0">
      <root>
        <mxCell id="0" />
        <mxCell id="1" parent="0" />
        <mxCell id="oR8qnFVg_3T_-0G8JnXh-11" value="" style="group" parent="1" vertex="1" connectable="0">
          <mxGeometry x="240" y="400" width="142.5" height="130" as="geometry" />
        </mxCell>
        <mxCell id="oR8qnFVg_3T_-0G8JnXh-1" value="" style="shape=umlActor;verticalLabelPosition=bottom;verticalAlign=top;html=1;outlineConnect=0;" parent="oR8qnFVg_3T_-0G8JnXh-11" vertex="1">
          <mxGeometry x="30" width="30" height="60" as="geometry" />
        </mxCell>
        <mxCell id="oR8qnFVg_3T_-0G8JnXh-2" value="" style="sketch=0;pointerEvents=1;shadow=0;dashed=0;html=1;strokeColor=#82b366;labelPosition=center;verticalLabelPosition=bottom;verticalAlign=top;outlineConnect=0;align=center;shape=mxgraph.office.security.key_permissions;fillColor=#d5e8d4;" parent="oR8qnFVg_3T_-0G8JnXh-11" vertex="1">
          <mxGeometry x="72.5" y="40" width="25" height="53" as="geometry" />
        </mxCell>
        <mxCell id="oR8qnFVg_3T_-0G8JnXh-9" value="logged in user" style="text;html=1;strokeColor=none;fillColor=none;align=center;verticalAlign=middle;whiteSpace=wrap;rounded=0;" parent="oR8qnFVg_3T_-0G8JnXh-11" vertex="1">
          <mxGeometry y="100" width="142.5" height="30" as="geometry" />
        </mxCell>
        <mxCell id="oR8qnFVg_3T_-0G8JnXh-16" value="" style="endArrow=classic;html=1;rounded=0;entryX=0.5;entryY=1;entryDx=0;entryDy=0;" parent="1" target="oR8qnFVg_3T_-0G8JnXh-14" edge="1">
          <mxGeometry width="50" height="50" relative="1" as="geometry">
            <mxPoint x="300" y="380" as="sourcePoint" />
            <mxPoint x="190" y="240" as="targetPoint" />
          </mxGeometry>
        </mxCell>
        <mxCell id="oR8qnFVg_3T_-0G8JnXh-17" value="" style="endArrow=classic;html=1;rounded=0;entryX=0.161;entryY=1.044;entryDx=0;entryDy=0;entryPerimeter=0;" parent="1" target="oR8qnFVg_3T_-0G8JnXh-8" edge="1">
          <mxGeometry width="50" height="50" relative="1" as="geometry">
            <mxPoint x="360" y="390" as="sourcePoint" />
            <mxPoint x="250" y="240" as="targetPoint" />
          </mxGeometry>
        </mxCell>
        <mxCell id="oR8qnFVg_3T_-0G8JnXh-18" value="" style="endArrow=classic;html=1;rounded=0;entryX=0;entryY=0.5;entryDx=0;entryDy=0;" parent="1" edge="1" target="oR8qnFVg_3T_-0G8JnXh-12">
          <mxGeometry width="50" height="50" relative="1" as="geometry">
            <mxPoint x="370" y="430" as="sourcePoint" />
            <mxPoint x="240" y="390" as="targetPoint" />
          </mxGeometry>
        </mxCell>
        <mxCell id="oR8qnFVg_3T_-0G8JnXh-19" value="" style="endArrow=classic;html=1;rounded=0;entryX=-0.028;entryY=0.644;entryDx=0;entryDy=0;entryPerimeter=0;" parent="1" edge="1" target="oR8qnFVg_3T_-0G8JnXh-13">
          <mxGeometry width="50" height="50" relative="1" as="geometry">
            <mxPoint x="380" y="460" as="sourcePoint" />
            <mxPoint x="580" y="430" as="targetPoint" />
          </mxGeometry>
        </mxCell>
        <mxCell id="yCh27rGCpJPVmqjpuNjg-1" value="view / edit friends" style="rounded=1;whiteSpace=wrap;html=1;" vertex="1" parent="1">
          <mxGeometry x="430" y="560" width="120" height="60" as="geometry" />
        </mxCell>
        <mxCell id="yCh27rGCpJPVmqjpuNjg-3" value="delete account" style="rounded=1;whiteSpace=wrap;html=1;" vertex="1" parent="1">
          <mxGeometry x="40" y="435" width="120" height="60" as="geometry" />
        </mxCell>
        <mxCell id="yCh27rGCpJPVmqjpuNjg-4" value="create new trip plan" style="rounded=1;whiteSpace=wrap;html=1;" vertex="1" parent="1">
          <mxGeometry x="50" y="310" width="120" height="60" as="geometry" />
        </mxCell>
        <mxCell id="yCh27rGCpJPVmqjpuNjg-5" value="view / edit / delete / share existing trip plans" style="rounded=1;whiteSpace=wrap;html=1;" vertex="1" parent="1">
          <mxGeometry x="140" y="590" width="120" height="60" as="geometry" />
        </mxCell>
        <mxCell id="oR8qnFVg_3T_-0G8JnXh-8" value="log out" style="rounded=1;whiteSpace=wrap;html=1;container=0;" parent="1" vertex="1">
          <mxGeometry x="430" y="230" width="120" height="60" as="geometry" />
        </mxCell>
        <mxCell id="oR8qnFVg_3T_-0G8JnXh-12" value="contact app owner via form" style="rounded=1;whiteSpace=wrap;html=1;container=0;" parent="1" vertex="1">
          <mxGeometry x="530" y="310" width="120" height="60" as="geometry" />
        </mxCell>
        <mxCell id="oR8qnFVg_3T_-0G8JnXh-13" value="view / edit personal details" style="rounded=1;whiteSpace=wrap;html=1;container=0;" parent="1" vertex="1">
          <mxGeometry x="550" y="450" width="120" height="60" as="geometry" />
        </mxCell>
        <mxCell id="oR8qnFVg_3T_-0G8JnXh-14" value="change language" style="rounded=1;whiteSpace=wrap;html=1;container=0;" parent="1" vertex="1">
          <mxGeometry x="240" y="200" width="120" height="60" as="geometry" />
        </mxCell>
        <mxCell id="yCh27rGCpJPVmqjpuNjg-8" value="" style="endArrow=classic;html=1;rounded=0;" edge="1" parent="1">
          <mxGeometry width="50" height="50" relative="1" as="geometry">
            <mxPoint x="250" y="400" as="sourcePoint" />
            <mxPoint x="170" y="340" as="targetPoint" />
          </mxGeometry>
        </mxCell>
        <mxCell id="yCh27rGCpJPVmqjpuNjg-9" value="" style="endArrow=classic;html=1;rounded=0;" edge="1" parent="1">
          <mxGeometry width="50" height="50" relative="1" as="geometry">
            <mxPoint x="240" y="460" as="sourcePoint" />
            <mxPoint x="160" y="460" as="targetPoint" />
          </mxGeometry>
        </mxCell>
        <mxCell id="yCh27rGCpJPVmqjpuNjg-10" value="" style="endArrow=classic;html=1;rounded=0;entryX=0.75;entryY=0;entryDx=0;entryDy=0;" edge="1" parent="1" target="yCh27rGCpJPVmqjpuNjg-5">
          <mxGeometry width="50" height="50" relative="1" as="geometry">
            <mxPoint x="260" y="540" as="sourcePoint" />
            <mxPoint x="260" y="540" as="targetPoint" />
          </mxGeometry>
        </mxCell>
        <mxCell id="yCh27rGCpJPVmqjpuNjg-12" value="" style="endArrow=classic;html=1;rounded=0;entryX=0;entryY=0.5;entryDx=0;entryDy=0;" edge="1" parent="1" target="yCh27rGCpJPVmqjpuNjg-1">
          <mxGeometry width="50" height="50" relative="1" as="geometry">
            <mxPoint x="382.5" y="510" as="sourcePoint" />
            <mxPoint x="432.5" y="460" as="targetPoint" />
          </mxGeometry>
        </mxCell>
      </root>
    </mxGraphModel>
  </diagram>
</mxfile>
